D:\school\WTK\thesis\model\3dpredictsim\Results\Batchsim_tmt_linear_v2\Pog_s1_tmt_aCst_d02_k2000_ig24_act_GRF.mot
nRows=25
nColumns=19

name D:\school\WTK\thesis\model\3dpredictsim\Results\Batchsim_tmt_linear_v2\Pog_s1_tmt_aCst_d02_k2000_ig24_act_GRF.mot
datacolumns 19
datarows 25
range 0.6076862052 0.8993755838
endheader
time 	ground_force_vx	ground_force_vy	ground_force_vz	ground_force_px	ground_force_py	ground_force_pz	1_ground_force_vx	1_ground_force_vy	1_ground_force_vz	1_ground_force_px	1_ground_force_py	1_ground_force_pz	ground_torque_x	ground_torque_y	ground_torque_z	1_ground_torque_x	1_ground_torque_y	1_ground_torque_z
        0.6076862052	       79.5430273494	      342.1710604606	       -3.3005193722	        0.4041835653	        0.0000000000	        0.0428332958	      -33.0405522871	       23.8633040944	       -3.6593327073	        0.9540881884	        0.0000000000	       -0.0539341567	        0.0000000000	        0.0000000000	        0.0000000000	        0.0000000000	        0.0000000000	        0.0000000000	
        0.6198399293	       32.1317030973	      224.1226477506	        5.4087664222	        0.4408658574	        0.0000000000	        0.0369979881	      -97.3438253137	       82.3844723110	      -13.2708683837	        0.9646898899	        0.0000000000	       -0.0527160566	        0.0000000000	        0.0000000000	        0.0000000000	        0.0000000000	        0.0000000000	        0.0000000000	
        0.6319936534	       18.7725395138	      184.2852327147	       11.8667446735	        0.4487249260	        0.0000000000	        0.0350121930	     -124.1925623419	      236.9073486415	      -19.0080871320	        0.9717166700	        0.0000000000	       -0.0518359212	        0.0000000000	        0.0000000000	        0.0000000000	        0.0000000000	        0.0000000000	        0.0000000000	
        0.6441473776	       19.3837805843	      144.6417992147	       12.1938677837	        0.4493628226	        0.0000000000	        0.0351229058	      -88.2551239146	      490.3420150844	        1.4701214284	        0.9765750646	        0.0000000000	       -0.0516862063	        0.0000000000	        0.0000000000	        0.0000000000	        0.0000000000	        0.0000000000	        0.0000000000	
        0.6563011017	       13.9729798337	       96.0705710623	       12.3053469562	        0.4498916659	        0.0000000000	        0.0353727294	     -127.2455641541	      779.6295293661	       18.0096278286	        0.9873194702	        0.0000000000	       -0.0539362337	        0.0000000000	        0.0000000000	        0.0000000000	        0.0000000000	        0.0000000000	        0.0000000000	
        0.6684548258	        1.4186821701	       39.7082578462	        7.7867593009	        0.4496914453	        0.0000000000	        0.0356067854	     -180.0357500364	      984.2302311973	       25.4511328918	        0.9967868845	        0.0000000000	       -0.0561390251	        0.0000000000	        0.0000000000	        0.0000000000	        0.0000000000	        0.0000000000	        0.0000000000	
        0.6806085499	        0.3162318776	       -0.3230134109	       -0.0109634267	        0.0000000000	        0.0000000000	        0.0000000000	     -186.6999894682	     1013.6077694280	       26.2961582659	        1.0029456000	        0.0000000000	       -0.0574196225	        0.0000000000	        0.0000000000	        0.0000000000	        0.0000000000	        0.0000000000	        0.0000000000	
        0.6927622740	        0.0017850632	       -0.0014452429	        0.0000931675	        0.0000000000	        0.0000000000	        0.0000000000	     -164.7499282498	      939.7947913536	       23.9502115803	        1.0075093537	        0.0000000000	       -0.0582293724	        0.0000000000	        0.0000000000	        0.0000000000	        0.0000000000	        0.0000000000	        0.0000000000	
        0.7049159981	        0.0044021874	       -0.0030432597	        0.0002810221	        0.0000000000	        0.0000000000	        0.0000000000	     -141.4693175227	      849.9164125783	       20.7977949171	        1.0117068981	        0.0000000000	       -0.0587599030	        0.0000000000	        0.0000000000	        0.0000000000	        0.0000000000	        0.0000000000	        0.0000000000	
        0.7170697222	        0.0483767052	       -0.0297327766	        0.0031258976	        0.0000000000	        0.0000000000	        0.0000000000	     -122.0938973515	      786.9046020903	       18.4684792500	        1.0163809837	        0.0000000000	       -0.0592092979	        0.0000000000	        0.0000000000	        0.0000000000	        0.0000000000	        0.0000000000	        0.0000000000	
        0.7292234463	       -0.3294640890	        0.1854801349	       -0.0201145579	        0.0000000000	        0.0000000000	        0.0000000000	     -111.0071906948	      748.5013560281	       17.4180132783	        1.0224264525	        0.0000000000	       -0.0593369207	        0.0000000000	        0.0000000000	        0.0000000000	        0.0000000000	        0.0000000000	        0.0000000000	
        0.7413771704	       -0.2453384452	        0.1290186814	       -0.0138432175	        0.0000000000	        0.0000000000	        0.0000000000	     -100.6985249193	      717.1474370445	       16.6830081849	        1.0282901649	        0.0000000000	       -0.0591647655	        0.0000000000	        0.0000000000	        0.0000000000	        0.0000000000	        0.0000000000	        0.0000000000	
        0.7535308945	       -0.1546850882	        0.0775084946	       -0.0075251398	        0.0000000000	        0.0000000000	        0.0000000000	      -90.4315726861	      686.6437217217	       16.4598591526	        1.0334028606	        0.0000000000	       -0.0589573738	        0.0000000000	        0.0000000000	        0.0000000000	        0.0000000000	        0.0000000000	        0.0000000000	
        0.7656846186	       -0.1129493441	        0.0543375962	       -0.0047381321	        0.0000000000	        0.0000000000	        0.0000000000	      -80.9538025557	      661.0414357425	       16.4588740678	        1.0381337129	        0.0000000000	       -0.0586844124	        0.0000000000	        0.0000000000	        0.0000000000	        0.0000000000	        0.0000000000	        0.0000000000	
        0.7778383427	       -0.1026298415	        0.0477288316	       -0.0037337644	        0.0000000000	        0.0000000000	        0.0000000000	      -72.5089812847	      640.4144788518	       16.8832926342	        1.0425976949	        0.0000000000	       -0.0583989953	        0.0000000000	        0.0000000000	        0.0000000000	        0.0000000000	        0.0000000000	        0.0000000000	
        0.7899920668	       -0.1137314209	        0.0513583280	       -0.0035995662	        0.0000000000	        0.0000000000	        0.0000000000	      -64.7476669197	      623.9113885434	       17.5264323369	        1.0467782941	        0.0000000000	       -0.0581311464	        0.0000000000	        0.0000000000	        0.0000000000	        0.0000000000	        0.0000000000	        0.0000000000	
        0.8021457909	       -0.1481028878	        0.0651667078	       -0.0041321126	        0.0000000000	        0.0000000000	        0.0000000000	      -57.5132748341	      610.5113232104	       18.3856126516	        1.0507540121	        0.0000000000	       -0.0578643163	        0.0000000000	        0.0000000000	        0.0000000000	        0.0000000000	        0.0000000000	        0.0000000000	
        0.8142995150	       -0.2173011546	        0.0933881820	       -0.0054081989	        0.0000000000	        0.0000000000	        0.0000000000	      -51.0814077885	      599.6525708502	       19.2456529108	        1.0545323066	        0.0000000000	       -0.0575917656	        0.0000000000	        0.0000000000	        0.0000000000	        0.0000000000	        0.0000000000	        0.0000000000	
        0.8264532391	       -0.3401762209	        0.1431903237	       -0.0076327319	        0.0000000000	        0.0000000000	        0.0000000000	      -45.5467797387	      590.4618571888	       19.7467379554	        1.0580228507	        0.0000000000	       -0.0573268543	        0.0000000000	        0.0000000000	        0.0000000000	        0.0000000000	        0.0000000000	        0.0000000000	
        0.8386069632	       -0.5373915974	        0.2221809859	       -0.0107896105	        0.0000000000	        0.0000000000	        0.0000000000	      -40.3729529024	      582.3624006825	       19.9230221340	        1.0612192877	        0.0000000000	       -0.0570737164	        0.0000000000	        0.0000000000	        0.0000000000	        0.0000000000	        0.0000000000	        0.0000000000	
        0.8507606873	       -0.8182904382	        0.3331948129	       -0.0144462813	        0.0000000000	        0.0000000000	        0.0000000000	      -35.5836128770	      575.0948474636	       20.1354474338	        1.0641725821	        0.0000000000	       -0.0568179307	        0.0000000000	        0.0000000000	        0.0000000000	        0.0000000000	        0.0000000000	        0.0000000000	
        0.8629144114	       -1.1650975946	        0.4684345585	       -0.0180081648	        0.0000000000	        0.0000000000	        0.0000000000	      -31.0662857819	      568.1807550773	       20.4943609281	        1.0668637473	        0.0000000000	       -0.0565560678	        0.0000000000	        0.0000000000	        0.0000000000	        0.0000000000	        0.0000000000	        0.0000000000	
        0.8750681355	       -1.5226153752	        0.6059719902	       -0.0206502473	        0.0000000000	        0.0000000000	        0.0000000000	      -26.5932269443	      561.7916314004	       20.8373980817	        1.0693094775	        0.0000000000	       -0.0562979098	        0.0000000000	        0.0000000000	        0.0000000000	        0.0000000000	        0.0000000000	        0.0000000000	
        0.8872218596	       -1.8221032996	        0.7194171387	       -0.0219791219	        0.0000000000	        0.0000000000	        0.0000000000	      -22.0709310968	      555.8569793419	       21.1873260829	        1.0715317305	        0.0000000000	       -0.0560390224	        0.0000000000	        0.0000000000	        0.0000000000	        0.0000000000	        0.0000000000	        0.0000000000	
        0.8993755838	       -2.0192824667	        0.7922524296	       -0.0218553958	        0.0000000000	        0.0000000000	        0.0000000000	      -17.3430899533	      550.5753681328	       21.3236454397	        1.0735751483	        0.0000000000	       -0.0557807877	        0.0000000000	        0.0000000000	        0.0000000000	        0.0000000000	        0.0000000000	        0.0000000000	
